<svg xmlns="http://www.w3.org/2000/svg" viewBox="0 0 1200 900" preserveAspectRatio="xMidYMid slice">
  <defs>
    <linearGradient id="fsky" x1="0%" y1="0%" x2="0%" y2="100%">
      <stop offset="0%" stop-color="#1B4332"/>
      <stop offset="60%" stop-color="#3D4A40"/>
      <stop offset="100%" stop-color="#D4A574"/>
    </linearGradient>
    <linearGradient id="pool" x1="0%" y1="0%" x2="0%" y2="100%">
      <stop offset="0%" stop-color="#87CEEB"/>
      <stop offset="100%" stop-color="#1B4332"/>
    </linearGradient>
  </defs>
  <rect width="1200" height="900" fill="url(#fsky)"/>
  <ellipse cx="600" cy="500" rx="500" ry="120" fill="url(#pool)"/>
  <path d="M 200 500 Q 400 460 600 500 T 1000 500" fill="none" stroke="#FFFFFF" stroke-width="1" opacity="0.3"/>
  <path d="M 200 520 Q 400 480 600 520 T 1000 520" fill="none" stroke="#FFFFFF" stroke-width="1" opacity="0.2"/>
  <g opacity="0.4">
    <circle cx="150" cy="700" r="60" fill="#0D1B14"/>
    <circle cx="130" cy="660" r="50" fill="#0D1B14"/>
    <circle cx="170" cy="660" r="40" fill="#0D1B14"/>
    <rect x="145" y="700" width="10" height="80" fill="#0D1B14"/>
    <circle cx="1050" cy="700" r="70" fill="#0D1B14"/>
    <circle cx="1020" cy="650" r="60" fill="#0D1B14"/>
    <circle cx="1080" cy="660" r="50" fill="#0D1B14"/>
    <rect x="1045" y="700" width="12" height="90" fill="#0D1B14"/>
  </g>
  <g fill="#0D1B14" opacity="0.85">
    <rect x="200" y="800" width="60" height="40"/>
    <rect x="195" y="790" width="70" height="15"/>
    <rect x="940" y="800" width="60" height="40"/>
    <rect x="935" y="790" width="70" height="15"/>
  </g>
  <line x1="0" y1="840" x2="1200" y2="840" stroke="#D4A574" stroke-width="1" opacity="0.4"/>
  <line x1="0" y1="860" x2="1200" y2="860" stroke="#D4A574" stroke-width="0.5" opacity="0.3"/>
</svg>
